<mxfile host="app.diagrams.net" modified="2021-11-08T13:43:54.845Z" agent="5.0 (Windows NT 10.0; Win64; x64) AppleWebKit/537.36 (KHTML, like Gecko) Chrome/94.0.4606.81 Safari/537.36" etag="UbR5PqDEatFaieGJJIdX" version="15.7.0" type="github">
  <diagram id="-vRA3a9QYEtRezH6_-el" name="Page-1">
    <mxGraphModel dx="2031" dy="1591" grid="0" gridSize="10" guides="1" tooltips="1" connect="1" arrows="1" fold="1" page="0" pageScale="1" pageWidth="827" pageHeight="1169" math="0" shadow="1">
      <root>
        <mxCell id="0" />
        <mxCell id="1" parent="0" />
        <mxCell id="loE3bf_eDixD6Titz73B-2" value="&lt;font style=&quot;font-size: 24px&quot;&gt;Start&lt;/font&gt;" style="ellipse;whiteSpace=wrap;html=1;rounded=0;" vertex="1" parent="1">
          <mxGeometry x="354" y="-185" width="120" height="80" as="geometry" />
        </mxCell>
        <mxCell id="loE3bf_eDixD6Titz73B-3" value="&lt;font style=&quot;font-size: 18px&quot;&gt;int num = (A-&amp;gt;data &amp;gt; B-&amp;gt;data)? A-&amp;gt;data : B-&amp;gt;data;&lt;/font&gt;" style="whiteSpace=wrap;html=1;fontSize=24;rounded=0;" vertex="1" parent="1">
          <mxGeometry x="178.5" y="-47" width="471" height="60" as="geometry" />
        </mxCell>
        <mxCell id="loE3bf_eDixD6Titz73B-7" value="&lt;font style=&quot;font-size: 24px&quot;&gt;End&lt;/font&gt;" style="ellipse;whiteSpace=wrap;html=1;fontSize=13;rounded=0;" vertex="1" parent="1">
          <mxGeometry x="354" y="1797" width="120" height="65" as="geometry" />
        </mxCell>
        <mxCell id="loE3bf_eDixD6Titz73B-8" value="" style="endArrow=classic;html=1;fontSize=24;rounded=0;entryX=0.5;entryY=0;entryDx=0;entryDy=0;exitX=0.5;exitY=1;exitDx=0;exitDy=0;" edge="1" parent="1" source="loE3bf_eDixD6Titz73B-2" target="loE3bf_eDixD6Titz73B-3">
          <mxGeometry width="50" height="50" relative="1" as="geometry">
            <mxPoint x="413" y="140" as="sourcePoint" />
            <mxPoint x="413" y="170" as="targetPoint" />
            <Array as="points" />
          </mxGeometry>
        </mxCell>
        <mxCell id="loE3bf_eDixD6Titz73B-14" value="" style="endArrow=classic;html=1;fontSize=24;rounded=0;entryX=0.5;entryY=0;entryDx=0;entryDy=0;exitX=0.5;exitY=1;exitDx=0;exitDy=0;" edge="1" parent="1" source="loE3bf_eDixD6Titz73B-45" target="loE3bf_eDixD6Titz73B-15">
          <mxGeometry width="50" height="50" relative="1" as="geometry">
            <mxPoint x="631" y="467" as="sourcePoint" />
            <mxPoint x="414" y="577" as="targetPoint" />
          </mxGeometry>
        </mxCell>
        <mxCell id="loE3bf_eDixD6Titz73B-15" value="i &amp;lt; num" style="rhombus;whiteSpace=wrap;html=1;rounded=0;sketch=0;" vertex="1" parent="1">
          <mxGeometry x="307.5" y="513" width="213" height="80" as="geometry" />
        </mxCell>
        <mxCell id="loE3bf_eDixD6Titz73B-24" value="" style="endArrow=classic;html=1;rounded=1;sketch=0;curved=0;exitX=0;exitY=0.5;exitDx=0;exitDy=0;entryX=0.5;entryY=0;entryDx=0;entryDy=0;" edge="1" parent="1" source="loE3bf_eDixD6Titz73B-15" target="loE3bf_eDixD6Titz73B-90">
          <mxGeometry width="50" height="50" relative="1" as="geometry">
            <mxPoint x="422" y="921" as="sourcePoint" />
            <mxPoint x="414" y="1104" as="targetPoint" />
            <Array as="points">
              <mxPoint x="136" y="553" />
              <mxPoint x="136" y="1627" />
              <mxPoint x="414" y="1627" />
            </Array>
          </mxGeometry>
        </mxCell>
        <mxCell id="loE3bf_eDixD6Titz73B-25" value="" style="endArrow=classic;html=1;rounded=1;sketch=0;curved=0;exitX=0.5;exitY=1;exitDx=0;exitDy=0;entryX=0.5;entryY=0;entryDx=0;entryDy=0;" edge="1" parent="1" source="loE3bf_eDixD6Titz73B-15" target="loE3bf_eDixD6Titz73B-47">
          <mxGeometry width="50" height="50" relative="1" as="geometry">
            <mxPoint x="422" y="921" as="sourcePoint" />
            <mxPoint x="414" y="664" as="targetPoint" />
          </mxGeometry>
        </mxCell>
        <mxCell id="loE3bf_eDixD6Titz73B-36" value="" style="endArrow=classic;html=1;rounded=1;sketch=0;curved=0;entryX=0.5;entryY=0;entryDx=0;entryDy=0;exitX=0.5;exitY=0.963;exitDx=0;exitDy=0;exitPerimeter=0;" edge="1" parent="1" source="loE3bf_eDixD6Titz73B-47" target="loE3bf_eDixD6Titz73B-54">
          <mxGeometry width="50" height="50" relative="1" as="geometry">
            <mxPoint x="414" y="748" as="sourcePoint" />
            <mxPoint x="414" y="790" as="targetPoint" />
          </mxGeometry>
        </mxCell>
        <mxCell id="loE3bf_eDixD6Titz73B-38" value="&lt;font style=&quot;font-size: 15px&quot;&gt;A = A-&amp;gt;next&lt;/font&gt;" style="rounded=0;whiteSpace=wrap;html=1;sketch=0;fontSize=18;" vertex="1" parent="1">
          <mxGeometry x="354" y="51" width="120" height="60" as="geometry" />
        </mxCell>
        <mxCell id="loE3bf_eDixD6Titz73B-39" value="B = B-&amp;gt;next" style="rounded=0;whiteSpace=wrap;html=1;sketch=0;fontSize=15;" vertex="1" parent="1">
          <mxGeometry x="354" y="146" width="120" height="60" as="geometry" />
        </mxCell>
        <mxCell id="loE3bf_eDixD6Titz73B-41" value="" style="endArrow=classic;html=1;rounded=1;sketch=0;fontSize=15;curved=0;exitX=0.5;exitY=1;exitDx=0;exitDy=0;entryX=0.5;entryY=0;entryDx=0;entryDy=0;" edge="1" parent="1" source="loE3bf_eDixD6Titz73B-38" target="loE3bf_eDixD6Titz73B-39">
          <mxGeometry width="50" height="50" relative="1" as="geometry">
            <mxPoint x="343" y="297" as="sourcePoint" />
            <mxPoint x="393" y="247" as="targetPoint" />
          </mxGeometry>
        </mxCell>
        <mxCell id="loE3bf_eDixD6Titz73B-42" value="" style="endArrow=classic;html=1;rounded=1;sketch=0;fontSize=15;curved=0;exitX=0.5;exitY=1;exitDx=0;exitDy=0;entryX=0.5;entryY=0;entryDx=0;entryDy=0;" edge="1" parent="1" source="loE3bf_eDixD6Titz73B-3" target="loE3bf_eDixD6Titz73B-38">
          <mxGeometry width="50" height="50" relative="1" as="geometry">
            <mxPoint x="343" y="297" as="sourcePoint" />
            <mxPoint x="436" y="44" as="targetPoint" />
          </mxGeometry>
        </mxCell>
        <mxCell id="loE3bf_eDixD6Titz73B-43" value="tmp = 0" style="rounded=0;whiteSpace=wrap;html=1;sketch=0;fontSize=15;" vertex="1" parent="1">
          <mxGeometry x="354" y="254" width="120" height="60" as="geometry" />
        </mxCell>
        <mxCell id="loE3bf_eDixD6Titz73B-44" value="" style="endArrow=classic;html=1;rounded=1;sketch=0;fontSize=15;curved=0;entryX=0.5;entryY=0;entryDx=0;entryDy=0;exitX=0.5;exitY=1;exitDx=0;exitDy=0;" edge="1" parent="1" source="loE3bf_eDixD6Titz73B-39" target="loE3bf_eDixD6Titz73B-43">
          <mxGeometry width="50" height="50" relative="1" as="geometry">
            <mxPoint x="542" y="223" as="sourcePoint" />
            <mxPoint x="393" y="335" as="targetPoint" />
          </mxGeometry>
        </mxCell>
        <mxCell id="loE3bf_eDixD6Titz73B-45" value="struct node *C = mycreateList()" style="rounded=0;whiteSpace=wrap;html=1;sketch=0;fontSize=15;" vertex="1" parent="1">
          <mxGeometry x="290.5" y="373" width="247" height="60" as="geometry" />
        </mxCell>
        <mxCell id="loE3bf_eDixD6Titz73B-46" value="" style="endArrow=classic;html=1;rounded=1;sketch=0;fontSize=15;curved=0;exitX=0.5;exitY=1;exitDx=0;exitDy=0;entryX=0.5;entryY=0;entryDx=0;entryDy=0;" edge="1" parent="1" source="loE3bf_eDixD6Titz73B-43" target="loE3bf_eDixD6Titz73B-45">
          <mxGeometry width="50" height="50" relative="1" as="geometry">
            <mxPoint x="343" y="295" as="sourcePoint" />
            <mxPoint x="393" y="245" as="targetPoint" />
          </mxGeometry>
        </mxCell>
        <mxCell id="loE3bf_eDixD6Titz73B-47" value="A != NULL &amp;amp;&amp;amp; B != NULL" style="rhombus;whiteSpace=wrap;html=1;rounded=0;sketch=0;fontSize=15;" vertex="1" parent="1">
          <mxGeometry x="300.5" y="671" width="227" height="80" as="geometry" />
        </mxCell>
        <mxCell id="loE3bf_eDixD6Titz73B-49" value="A == NULL &amp;amp;&amp;amp; B != NULL" style="rhombus;whiteSpace=wrap;html=1;rounded=0;sketch=0;fontSize=15;" vertex="1" parent="1">
          <mxGeometry x="687" y="843" width="227" height="80" as="geometry" />
        </mxCell>
        <mxCell id="loE3bf_eDixD6Titz73B-51" value="" style="endArrow=classic;html=1;rounded=1;sketch=0;fontSize=15;curved=0;entryX=0.5;entryY=0;entryDx=0;entryDy=0;exitX=1;exitY=0.5;exitDx=0;exitDy=0;" edge="1" parent="1" source="loE3bf_eDixD6Titz73B-47" target="loE3bf_eDixD6Titz73B-49">
          <mxGeometry width="50" height="50" relative="1" as="geometry">
            <mxPoint x="343" y="795" as="sourcePoint" />
            <mxPoint x="393" y="745" as="targetPoint" />
            <Array as="points">
              <mxPoint x="801" y="711" />
            </Array>
          </mxGeometry>
        </mxCell>
        <mxCell id="loE3bf_eDixD6Titz73B-52" value="YES" style="text;html=1;resizable=0;autosize=1;align=center;verticalAlign=middle;points=[];fillColor=none;strokeColor=none;rounded=0;sketch=0;fontSize=15;" vertex="1" parent="1">
          <mxGeometry x="348" y="759" width="40" height="22" as="geometry" />
        </mxCell>
        <mxCell id="loE3bf_eDixD6Titz73B-53" value="NO" style="text;html=1;resizable=0;autosize=1;align=center;verticalAlign=middle;points=[];fillColor=none;strokeColor=none;rounded=0;sketch=0;fontSize=15;" vertex="1" parent="1">
          <mxGeometry x="608" y="678" width="33" height="22" as="geometry" />
        </mxCell>
        <mxCell id="loE3bf_eDixD6Titz73B-54" value="int number = A-&amp;gt;data + B-&amp;gt;data +tmp" style="rounded=0;whiteSpace=wrap;html=1;sketch=0;fontSize=15;" vertex="1" parent="1">
          <mxGeometry x="244.5" y="809" width="339" height="60" as="geometry" />
        </mxCell>
        <mxCell id="loE3bf_eDixD6Titz73B-55" value="myinsertHead(C,number % 10);" style="rounded=0;whiteSpace=wrap;html=1;sketch=0;fontSize=15;" vertex="1" parent="1">
          <mxGeometry x="298.5" y="912" width="231" height="60" as="geometry" />
        </mxCell>
        <mxCell id="loE3bf_eDixD6Titz73B-56" value="tmp = number / 10" style="rounded=0;whiteSpace=wrap;html=1;sketch=0;fontSize=15;" vertex="1" parent="1">
          <mxGeometry x="312.5" y="1006" width="203" height="60" as="geometry" />
        </mxCell>
        <mxCell id="loE3bf_eDixD6Titz73B-57" value="A = A-&amp;gt;next" style="rounded=0;whiteSpace=wrap;html=1;sketch=0;fontSize=15;" vertex="1" parent="1">
          <mxGeometry x="354" y="1101" width="120" height="60" as="geometry" />
        </mxCell>
        <mxCell id="loE3bf_eDixD6Titz73B-58" value="B = B-&amp;gt;next" style="rounded=0;whiteSpace=wrap;html=1;sketch=0;fontSize=15;" vertex="1" parent="1">
          <mxGeometry x="354" y="1192" width="120" height="60" as="geometry" />
        </mxCell>
        <mxCell id="loE3bf_eDixD6Titz73B-59" value="" style="endArrow=classic;html=1;rounded=1;sketch=0;fontSize=15;curved=0;exitX=0.5;exitY=1;exitDx=0;exitDy=0;entryX=0.5;entryY=0;entryDx=0;entryDy=0;" edge="1" parent="1" source="loE3bf_eDixD6Titz73B-54" target="loE3bf_eDixD6Titz73B-55">
          <mxGeometry width="50" height="50" relative="1" as="geometry">
            <mxPoint x="343" y="1086" as="sourcePoint" />
            <mxPoint x="393" y="1036" as="targetPoint" />
          </mxGeometry>
        </mxCell>
        <mxCell id="loE3bf_eDixD6Titz73B-60" value="" style="endArrow=classic;html=1;rounded=1;sketch=0;fontSize=15;curved=0;exitX=0.5;exitY=1;exitDx=0;exitDy=0;entryX=0.5;entryY=0;entryDx=0;entryDy=0;" edge="1" parent="1" source="loE3bf_eDixD6Titz73B-55" target="loE3bf_eDixD6Titz73B-56">
          <mxGeometry width="50" height="50" relative="1" as="geometry">
            <mxPoint x="343" y="1086" as="sourcePoint" />
            <mxPoint x="393" y="1036" as="targetPoint" />
          </mxGeometry>
        </mxCell>
        <mxCell id="loE3bf_eDixD6Titz73B-61" value="" style="endArrow=classic;html=1;rounded=1;sketch=0;fontSize=15;curved=0;exitX=0.5;exitY=1;exitDx=0;exitDy=0;entryX=0.5;entryY=0;entryDx=0;entryDy=0;" edge="1" parent="1" source="loE3bf_eDixD6Titz73B-56" target="loE3bf_eDixD6Titz73B-57">
          <mxGeometry width="50" height="50" relative="1" as="geometry">
            <mxPoint x="343" y="1086" as="sourcePoint" />
            <mxPoint x="393" y="1036" as="targetPoint" />
          </mxGeometry>
        </mxCell>
        <mxCell id="loE3bf_eDixD6Titz73B-62" value="" style="endArrow=classic;html=1;rounded=1;sketch=0;fontSize=15;curved=0;exitX=0.5;exitY=1;exitDx=0;exitDy=0;entryX=0.5;entryY=0;entryDx=0;entryDy=0;" edge="1" parent="1" source="loE3bf_eDixD6Titz73B-57" target="loE3bf_eDixD6Titz73B-58">
          <mxGeometry width="50" height="50" relative="1" as="geometry">
            <mxPoint x="343" y="1086" as="sourcePoint" />
            <mxPoint x="393" y="1036" as="targetPoint" />
          </mxGeometry>
        </mxCell>
        <mxCell id="loE3bf_eDixD6Titz73B-63" value="int number =&amp;nbsp; B-&amp;gt;data +tmp" style="rounded=0;whiteSpace=wrap;html=1;sketch=0;fontSize=15;" vertex="1" parent="1">
          <mxGeometry x="631" y="960" width="339" height="60" as="geometry" />
        </mxCell>
        <mxCell id="loE3bf_eDixD6Titz73B-64" value="myinsertHead(C,number % 10);" style="rounded=0;whiteSpace=wrap;html=1;sketch=0;fontSize=15;" vertex="1" parent="1">
          <mxGeometry x="685" y="1066" width="231" height="60" as="geometry" />
        </mxCell>
        <mxCell id="loE3bf_eDixD6Titz73B-65" value="tmp = number / 10" style="rounded=0;whiteSpace=wrap;html=1;sketch=0;fontSize=15;" vertex="1" parent="1">
          <mxGeometry x="699" y="1167" width="203" height="60" as="geometry" />
        </mxCell>
        <mxCell id="loE3bf_eDixD6Titz73B-66" value="B = B-&amp;gt;next" style="rounded=0;whiteSpace=wrap;html=1;sketch=0;fontSize=15;" vertex="1" parent="1">
          <mxGeometry x="740.5" y="1261" width="120" height="60" as="geometry" />
        </mxCell>
        <mxCell id="loE3bf_eDixD6Titz73B-67" value="" style="endArrow=classic;html=1;rounded=1;sketch=0;fontSize=15;curved=0;exitX=0.5;exitY=1;exitDx=0;exitDy=0;entryX=0.5;entryY=0;entryDx=0;entryDy=0;" edge="1" parent="1" source="loE3bf_eDixD6Titz73B-49" target="loE3bf_eDixD6Titz73B-63">
          <mxGeometry width="50" height="50" relative="1" as="geometry">
            <mxPoint x="818" y="986" as="sourcePoint" />
            <mxPoint x="868" y="936" as="targetPoint" />
          </mxGeometry>
        </mxCell>
        <mxCell id="loE3bf_eDixD6Titz73B-68" value="" style="endArrow=classic;html=1;rounded=1;sketch=0;fontSize=15;curved=0;exitX=0.5;exitY=1;exitDx=0;exitDy=0;entryX=0.5;entryY=0;entryDx=0;entryDy=0;" edge="1" parent="1" source="loE3bf_eDixD6Titz73B-63" target="loE3bf_eDixD6Titz73B-64">
          <mxGeometry width="50" height="50" relative="1" as="geometry">
            <mxPoint x="818" y="986" as="sourcePoint" />
            <mxPoint x="868" y="936" as="targetPoint" />
          </mxGeometry>
        </mxCell>
        <mxCell id="loE3bf_eDixD6Titz73B-69" value="" style="endArrow=classic;html=1;rounded=1;sketch=0;fontSize=15;curved=0;exitX=0.5;exitY=1;exitDx=0;exitDy=0;entryX=0.5;entryY=0;entryDx=0;entryDy=0;" edge="1" parent="1" source="loE3bf_eDixD6Titz73B-64" target="loE3bf_eDixD6Titz73B-65">
          <mxGeometry width="50" height="50" relative="1" as="geometry">
            <mxPoint x="818" y="986" as="sourcePoint" />
            <mxPoint x="868" y="936" as="targetPoint" />
          </mxGeometry>
        </mxCell>
        <mxCell id="loE3bf_eDixD6Titz73B-70" value="" style="endArrow=classic;html=1;rounded=1;sketch=0;fontSize=15;curved=0;exitX=0.5;exitY=1;exitDx=0;exitDy=0;entryX=0.5;entryY=0;entryDx=0;entryDy=0;" edge="1" parent="1" source="loE3bf_eDixD6Titz73B-65" target="loE3bf_eDixD6Titz73B-66">
          <mxGeometry width="50" height="50" relative="1" as="geometry">
            <mxPoint x="818" y="986" as="sourcePoint" />
            <mxPoint x="868" y="936" as="targetPoint" />
          </mxGeometry>
        </mxCell>
        <mxCell id="loE3bf_eDixD6Titz73B-71" value="int number = A-&amp;gt;data +tmp" style="rounded=0;whiteSpace=wrap;html=1;sketch=0;fontSize=15;" vertex="1" parent="1">
          <mxGeometry x="1139" y="960" width="339" height="60" as="geometry" />
        </mxCell>
        <mxCell id="loE3bf_eDixD6Titz73B-72" value="myinsertHead(C,number % 10);" style="rounded=0;whiteSpace=wrap;html=1;sketch=0;fontSize=15;" vertex="1" parent="1">
          <mxGeometry x="1193" y="1062" width="231" height="60" as="geometry" />
        </mxCell>
        <mxCell id="loE3bf_eDixD6Titz73B-73" value="tmp = number / 10" style="rounded=0;whiteSpace=wrap;html=1;sketch=0;fontSize=15;" vertex="1" parent="1">
          <mxGeometry x="1207" y="1153" width="203" height="60" as="geometry" />
        </mxCell>
        <mxCell id="loE3bf_eDixD6Titz73B-74" value="A = A-&amp;gt;next" style="rounded=0;whiteSpace=wrap;html=1;sketch=0;fontSize=15;" vertex="1" parent="1">
          <mxGeometry x="1248.5" y="1250" width="120" height="60" as="geometry" />
        </mxCell>
        <mxCell id="loE3bf_eDixD6Titz73B-75" value="" style="endArrow=classic;html=1;rounded=1;sketch=0;fontSize=15;curved=0;exitX=1;exitY=0.5;exitDx=0;exitDy=0;entryX=0.5;entryY=0;entryDx=0;entryDy=0;" edge="1" parent="1" source="loE3bf_eDixD6Titz73B-49" target="loE3bf_eDixD6Titz73B-71">
          <mxGeometry width="50" height="50" relative="1" as="geometry">
            <mxPoint x="818" y="1086" as="sourcePoint" />
            <mxPoint x="868" y="1036" as="targetPoint" />
            <Array as="points">
              <mxPoint x="1309" y="883" />
            </Array>
          </mxGeometry>
        </mxCell>
        <mxCell id="loE3bf_eDixD6Titz73B-76" value="" style="endArrow=classic;html=1;rounded=1;sketch=0;fontSize=15;curved=0;entryX=0.5;entryY=0;entryDx=0;entryDy=0;exitX=0.5;exitY=1;exitDx=0;exitDy=0;" edge="1" parent="1" source="loE3bf_eDixD6Titz73B-71" target="loE3bf_eDixD6Titz73B-72">
          <mxGeometry width="50" height="50" relative="1" as="geometry">
            <mxPoint x="818" y="1086" as="sourcePoint" />
            <mxPoint x="868" y="1036" as="targetPoint" />
          </mxGeometry>
        </mxCell>
        <mxCell id="loE3bf_eDixD6Titz73B-77" value="" style="endArrow=classic;html=1;rounded=1;sketch=0;fontSize=15;curved=0;entryX=0.5;entryY=0;entryDx=0;entryDy=0;exitX=0.5;exitY=1;exitDx=0;exitDy=0;" edge="1" parent="1" source="loE3bf_eDixD6Titz73B-72" target="loE3bf_eDixD6Titz73B-73">
          <mxGeometry width="50" height="50" relative="1" as="geometry">
            <mxPoint x="818" y="1086" as="sourcePoint" />
            <mxPoint x="868" y="1036" as="targetPoint" />
          </mxGeometry>
        </mxCell>
        <mxCell id="loE3bf_eDixD6Titz73B-78" value="" style="endArrow=classic;html=1;rounded=1;sketch=0;fontSize=15;curved=0;entryX=0.5;entryY=0;entryDx=0;entryDy=0;exitX=0.5;exitY=1;exitDx=0;exitDy=0;" edge="1" parent="1" source="loE3bf_eDixD6Titz73B-73" target="loE3bf_eDixD6Titz73B-74">
          <mxGeometry width="50" height="50" relative="1" as="geometry">
            <mxPoint x="818" y="1086" as="sourcePoint" />
            <mxPoint x="868" y="1036" as="targetPoint" />
          </mxGeometry>
        </mxCell>
        <mxCell id="loE3bf_eDixD6Titz73B-79" value="" style="endArrow=classic;html=1;rounded=1;sketch=0;fontSize=15;curved=0;exitX=0.5;exitY=1;exitDx=0;exitDy=0;entryX=1;entryY=0.5;entryDx=0;entryDy=0;" edge="1" parent="1" source="loE3bf_eDixD6Titz73B-58" target="loE3bf_eDixD6Titz73B-15">
          <mxGeometry width="50" height="50" relative="1" as="geometry">
            <mxPoint x="815" y="1436" as="sourcePoint" />
            <mxPoint x="1726" y="386" as="targetPoint" />
            <Array as="points">
              <mxPoint x="414" y="1541" />
              <mxPoint x="1736" y="1541" />
              <mxPoint x="1736" y="553" />
            </Array>
          </mxGeometry>
        </mxCell>
        <mxCell id="loE3bf_eDixD6Titz73B-80" value="" style="endArrow=none;html=1;rounded=1;sketch=0;fontSize=15;curved=0;exitX=0.5;exitY=1;exitDx=0;exitDy=0;" edge="1" parent="1" source="loE3bf_eDixD6Titz73B-66">
          <mxGeometry width="50" height="50" relative="1" as="geometry">
            <mxPoint x="815" y="1436" as="sourcePoint" />
            <mxPoint x="801" y="1541" as="targetPoint" />
          </mxGeometry>
        </mxCell>
        <mxCell id="loE3bf_eDixD6Titz73B-81" value="" style="endArrow=none;html=1;rounded=1;sketch=0;fontSize=15;curved=0;exitX=0.5;exitY=1;exitDx=0;exitDy=0;" edge="1" parent="1" source="loE3bf_eDixD6Titz73B-74">
          <mxGeometry width="50" height="50" relative="1" as="geometry">
            <mxPoint x="815" y="1318" as="sourcePoint" />
            <mxPoint x="1309" y="1541" as="targetPoint" />
          </mxGeometry>
        </mxCell>
        <mxCell id="loE3bf_eDixD6Titz73B-84" value="i++" style="rounded=0;whiteSpace=wrap;html=1;sketch=0;fontSize=15;" vertex="1" parent="1">
          <mxGeometry x="1676" y="968" width="120" height="60" as="geometry" />
        </mxCell>
        <mxCell id="loE3bf_eDixD6Titz73B-86" value="YES" style="text;html=1;resizable=0;autosize=1;align=center;verticalAlign=middle;points=[];fillColor=none;strokeColor=none;rounded=0;sketch=0;fontSize=15;" vertex="1" parent="1">
          <mxGeometry x="740.5" y="926" width="40" height="22" as="geometry" />
        </mxCell>
        <mxCell id="loE3bf_eDixD6Titz73B-87" value="NO" style="text;html=1;resizable=0;autosize=1;align=center;verticalAlign=middle;points=[];fillColor=none;strokeColor=none;rounded=0;sketch=0;fontSize=15;" vertex="1" parent="1">
          <mxGeometry x="947" y="847" width="33" height="22" as="geometry" />
        </mxCell>
        <mxCell id="loE3bf_eDixD6Titz73B-88" value="YES" style="text;html=1;resizable=0;autosize=1;align=center;verticalAlign=middle;points=[];fillColor=none;strokeColor=none;rounded=0;sketch=0;fontSize=15;" vertex="1" parent="1">
          <mxGeometry x="430" y="621" width="40" height="22" as="geometry" />
        </mxCell>
        <mxCell id="loE3bf_eDixD6Titz73B-89" value="NO" style="text;html=1;resizable=0;autosize=1;align=center;verticalAlign=middle;points=[];fillColor=none;strokeColor=none;rounded=0;sketch=0;fontSize=15;" vertex="1" parent="1">
          <mxGeometry x="253" y="513" width="33" height="22" as="geometry" />
        </mxCell>
        <mxCell id="loE3bf_eDixD6Titz73B-90" value="return C" style="rounded=0;whiteSpace=wrap;html=1;sketch=0;fontSize=15;" vertex="1" parent="1">
          <mxGeometry x="354" y="1676" width="120" height="60" as="geometry" />
        </mxCell>
        <mxCell id="loE3bf_eDixD6Titz73B-91" value="" style="endArrow=classic;html=1;rounded=1;sketch=0;fontSize=15;curved=0;exitX=0.5;exitY=1;exitDx=0;exitDy=0;entryX=0.5;entryY=0;entryDx=0;entryDy=0;" edge="1" parent="1" source="loE3bf_eDixD6Titz73B-90" target="loE3bf_eDixD6Titz73B-7">
          <mxGeometry width="50" height="50" relative="1" as="geometry">
            <mxPoint x="794" y="1705" as="sourcePoint" />
            <mxPoint x="844" y="1655" as="targetPoint" />
          </mxGeometry>
        </mxCell>
      </root>
    </mxGraphModel>
  </diagram>
</mxfile>
